# xmcd CD database file
#
# Track frame offsets:
#	150
#	24637
#	50530
#	66577
#	95207
#	123231
#	156353
#	188330
#	241824
#	254656
#
# Disc length: 3651 seconds
#
# Revision: 0
# Processed by: cddbd v1.5.2PL0 Copyright (c) Steve Scherf et al.
# Submitted via: CDex 1.70beta2
#
DISCID=8c0e410a
DTITLE=Lester Young - Centenial Celebration
DYEAR=2009
DGENRE=Jazz
TTITLE0=Jumpin' With Symphony Sid
TTITLE1=Tea For Two
TTITLE2=I Can't Get Started
TTITLE3=Pennies For Heaven
TTITLE4=I'm Confessin' (That I Love You)
TTITLE5=Oh Lady, Be Good
TTITLE6=Just You, Just Me
TTITLE7=Undecided
TTITLE8=I Cover the Waterfront
TTITLE9=Lester Leaps In
EXTD=YEAR: 2009
EXTT0=
EXTT1=
EXTT2=
EXTT3=
EXTT4=
EXTT5=
EXTT6=
EXTT7=
EXTT8=
EXTT9=
PLAYORDER=
